<svg xmlns="http://www.w3.org/2000/svg" xmlns:xlink="http://www.w3.org/1999/xlink" width="36" height="36" viewBox="0 0 36 36">
  <defs>
    <clipPath id="clip-path">
      <rect id="Rectangle_10" data-name="Rectangle 10" width="36" height="36" fill="#fff"/>
    </clipPath>
  </defs>
  <g id="Group_6" data-name="Group 6" clip-path="url(#clip-path)">
    <path id="Path_86" data-name="Path 86" d="M17.972,0A10.6,10.6,0,0,0,7.383,10.589V25.411a10.589,10.589,0,1,0,21.178,0V10.589A10.6,10.6,0,0,0,17.972,0ZM26.4,25.411a8.429,8.429,0,1,1-16.858,0V10.589a8.429,8.429,0,1,1,16.858,0Z" fill="#efd15b"/>
    <path id="Path_87" data-name="Path 87" d="M17.972,7.162a1.08,1.08,0,0,0-1.08,1.08v4.971a1.08,1.08,0,1,0,2.16,0V8.242A1.08,1.08,0,0,0,17.972,7.162Z" fill="#efd15b"/>
  </g>
</svg>
