<svg xmlns="http://www.w3.org/2000/svg" width="23.397" height="18.978" viewBox="0 0 23.397 18.978">
  <path id="Path_2" data-name="Path 2" d="M45.409,20.978A13.527,13.527,0,0,0,59.058,7.329v-.65A10.566,10.566,0,0,0,61.4,4.21a10.79,10.79,0,0,1-2.73.78,5.057,5.057,0,0,0,2.08-2.6,11.923,11.923,0,0,1-2.99,1.17A4.642,4.642,0,0,0,54.248,2a4.884,4.884,0,0,0-4.809,4.809,2.534,2.534,0,0,0,.13,1.04A13.439,13.439,0,0,1,39.69,2.78a4.978,4.978,0,0,0-.65,2.47,5.164,5.164,0,0,0,2.08,4.03,4.382,4.382,0,0,1-2.21-.65h0a4.751,4.751,0,0,0,3.9,4.679,4.007,4.007,0,0,1-1.3.13,2.212,2.212,0,0,1-.91-.13,4.924,4.924,0,0,0,4.549,3.38,9.814,9.814,0,0,1-5.979,2.08,3.6,3.6,0,0,1-1.17-.13,12.269,12.269,0,0,0,7.409,2.34" transform="translate(-38 -2)" fill="#efd15b" fill-rule="evenodd"/>
</svg>
