<svg xmlns="http://www.w3.org/2000/svg" width="24" height="24" viewBox="0 0 24 24">
  <path id="Path_4" data-name="Path 4" d="M3.6,3.6A10.894,10.894,0,0,1,12,0a10.894,10.894,0,0,1,8.4,3.6A10.894,10.894,0,0,1,24,12a10.894,10.894,0,0,1-3.6,8.4A10.894,10.894,0,0,1,12,24a10.894,10.894,0,0,1-8.4-3.6A11.976,11.976,0,0,1,0,12,10.894,10.894,0,0,1,3.6,3.6Zm10,18q1.2,0,3-1.8A8.735,8.735,0,0,0,18,15.6a3.312,3.312,0,0,0-1-2.4A3.521,3.521,0,0,0,14.4,12h-2a5.84,5.84,0,0,1-1.8-.4,1.816,1.816,0,0,1-.6-1.4,1.039,1.039,0,0,1,.4-.8,1.516,1.516,0,0,1,.8-.4,1.365,1.365,0,0,1,1,.6c.4.2.6.4.8.4a1.2,1.2,0,0,0,.8-.2A1.2,1.2,0,0,0,14,9a3.183,3.183,0,0,0-1-2,8.272,8.272,0,0,0,1-3.8.43.43,0,0,0-.4-.4A6.183,6.183,0,0,0,12,2.4,10,10,0,0,0,6.8,4,5.035,5.035,0,0,0,5,8a5.121,5.121,0,0,0,1.6,3.8,5.464,5.464,0,0,0,3.8,1.6h0v.8a2.568,2.568,0,0,0,.8,2A2.912,2.912,0,0,0,13,17.4V21c0,.2,0,.2.2.4S13.4,21.6,13.6,21.6Z" fill="#13233a"/>
</svg>
