<svg xmlns="http://www.w3.org/2000/svg" width="26.25" height="35" viewBox="0 0 26.25 35">
  <path id="Path_88" data-name="Path 88" d="M29.9,13.125H27.708V10.208a10.208,10.208,0,0,0-20.417,0v2.917H5.1a.729.729,0,0,0-.729.729V32.083A2.92,2.92,0,0,0,7.292,35H27.708a2.92,2.92,0,0,0,2.917-2.917V13.854A.729.729,0,0,0,29.9,13.125ZM19.683,28.357a.729.729,0,0,1-.725.81H16.042a.729.729,0,0,1-.725-.81l.46-4.136a2.885,2.885,0,0,1-1.193-2.346,2.917,2.917,0,1,1,5.833,0,2.885,2.885,0,0,1-1.193,2.346Zm3.65-15.232H11.667V10.208a5.833,5.833,0,0,1,11.667,0Z" transform="translate(-4.375)" fill="#efd15b"/>
</svg>
