<svg id="Group_4" data-name="Group 4" xmlns="http://www.w3.org/2000/svg" width="34.357" height="33" viewBox="0 0 34.357 33">
  <path id="Path_79" data-name="Path 79" d="M19.965,32.883a1.113,1.113,0,0,1-.626.11,1.125,1.125,0,0,1-.586-.251L7.614,23.571H2.29a2.262,2.262,0,0,1-1.618-.691A2.4,2.4,0,0,1,0,21.213V11.785a2.4,2.4,0,0,1,.672-1.666A2.261,2.261,0,0,1,2.29,9.428H7.614L18.752.257A1.121,1.121,0,0,1,19.965.118a1.154,1.154,0,0,1,.472.434,1.2,1.2,0,0,1,.175.626V31.82a1.208,1.208,0,0,1-.175.627A1.161,1.161,0,0,1,19.965,32.883Z" fill="#efd15b"/>
  <path id="Path_80" data-name="Path 80" d="M26.41,24.833a1.143,1.143,0,0,1-.374.265,1.116,1.116,0,0,1-.89,0,1.147,1.147,0,0,1-.376-.261,1.185,1.185,0,0,1-.249-.391,1.211,1.211,0,0,1,.016-.916,1.18,1.18,0,0,1,.262-.381A9.422,9.422,0,0,0,26.787,20.1a9.654,9.654,0,0,0,0-7.207A9.422,9.422,0,0,0,24.8,9.842a1.178,1.178,0,0,1-.257-.381,1.209,1.209,0,0,1-.011-.909,1.181,1.181,0,0,1,.248-.387,1.143,1.143,0,0,1,.374-.259,1.114,1.114,0,0,1,.884,0,1.143,1.143,0,0,1,.373.261A11.784,11.784,0,0,1,28.9,11.99a12.074,12.074,0,0,1,0,9.023A11.784,11.784,0,0,1,26.41,24.833Z" fill="#efd15b"/>
  <path id="Path_81" data-name="Path 81" d="M29.643,28.156a1.147,1.147,0,0,1-.373.267,1.117,1.117,0,0,1-.89.008A1.145,1.145,0,0,1,28,28.17a1.182,1.182,0,0,1-.25-.39,1.211,1.211,0,0,1,.014-.916,1.18,1.18,0,0,1,.262-.382,14.1,14.1,0,0,0,2.987-4.575,14.445,14.445,0,0,0,0-10.809,14.1,14.1,0,0,0-2.987-4.575,1.2,1.2,0,0,1,.014-1.647,1.123,1.123,0,0,1,1.6-.026,16.462,16.462,0,0,1,3.488,5.343,16.869,16.869,0,0,1,0,12.624,16.462,16.462,0,0,1-3.488,5.343Z" fill="#efd15b"/>
</svg>
